<?xml version="1.0" encoding="UTF-8" standalone="no"?>
<svg
   xmlns:dc="http://purl.org/dc/elements/1.1/"
   xmlns:cc="http://creativecommons.org/ns#"
   xmlns:rdf="http://www.w3.org/1999/02/22-rdf-syntax-ns#"
   xmlns:svg="http://www.w3.org/2000/svg"
   xmlns="http://www.w3.org/2000/svg"
   xmlns:sodipodi="http://sodipodi.sourceforge.net/DTD/sodipodi-0.dtd"
   xmlns:inkscape="http://www.inkscape.org/namespaces/inkscape"
   version="1.1"
   id="Layer_1"
   x="0px"
   y="0px"
   viewBox="0 0 300 100"
   xml:space="preserve"
   sodipodi:docname="logotipo.svg"
   width="300"
   height="100"
   inkscape:version="1.0.2-2 (e86c870879, 2021-01-15)"><metadata
   id="metadata110"><rdf:RDF><cc:Work
       rdf:about=""><dc:format>image/svg+xml</dc:format><dc:type
         rdf:resource="http://purl.org/dc/dcmitype/StillImage" /><dc:title></dc:title></cc:Work></rdf:RDF></metadata><defs
   id="defs108">
	
</defs><sodipodi:namedview
   pagecolor="#ffffff"
   bordercolor="#666666"
   borderopacity="1"
   objecttolerance="10"
   gridtolerance="10"
   guidetolerance="10"
   inkscape:pageopacity="0"
   inkscape:pageshadow="2"
   inkscape:window-width="1366"
   inkscape:window-height="705"
   id="namedview106"
   showgrid="false"
   inkscape:zoom="1.2808913"
   inkscape:cx="208.08291"
   inkscape:cy="73.936664"
   inkscape:window-x="-8"
   inkscape:window-y="-8"
   inkscape:window-maximized="1"
   inkscape:current-layer="Layer_1"
   inkscape:document-rotation="0" />

<g
   id="g75">
</g>
<g
   id="g77">
</g>
<g
   id="g79">
</g>
<g
   id="g81">
</g>
<g
   id="g83">
</g>
<g
   id="g85">
</g>
<g
   id="g87">
</g>
<g
   id="g89">
</g>
<g
   id="g91">
</g>
<g
   id="g93">
</g>
<g
   id="g95">
</g>
<g
   id="g97">
</g>
<g
   id="g99">
</g>
<g
   id="g101">
</g>
<g
   id="g103">
</g>
<g
   id="g904"
   transform="matrix(0.84149105,0,0,0.84149105,-4.0633895,-13.984434)"><g
     id="g71"
     transform="matrix(0.44839574,0,0,0.44839574,13.767434,10.164082)">
		<g
   id="g69">
			<path
   d="m 45.432,35.049 c -0.008,0 -0.017,0 -0.025,0 -2.809,0 -5.451,1.095 -7.446,3.085 -2.017,2.012 -3.128,4.691 -3.128,7.543 v 159.365 c 0,5.844 4.773,10.61 10.641,10.625 24.738,0.059 66.184,5.215 94.776,35.136 V 84.023 c 0,-1.981 -0.506,-3.842 -1.461,-5.382 C 115.322,40.849 70.226,35.107 45.432,35.049 Z"
   id="path61" />
			<path
   d="M 262.167,205.042 V 45.676 c 0,-2.852 -1.111,-5.531 -3.128,-7.543 -1.995,-1.99 -4.639,-3.085 -7.445,-3.085 -0.009,0 -0.018,0 -0.026,0 -24.793,0.059 -69.889,5.801 -93.357,43.593 -0.955,1.54 -1.46,3.401 -1.46,5.382 v 166.779 c 28.592,-29.921 70.038,-35.077 94.776,-35.136 5.867,-0.015 10.64,-4.781 10.64,-10.624 z"
   id="path63" />
			<path
   d="m 286.373,71.801 h -7.706 v 133.241 c 0,14.921 -12.157,27.088 -27.101,27.125 -20.983,0.05 -55.581,4.153 -80.084,27.344 42.378,-10.376 87.052,-3.631 112.512,2.171 3.179,0.724 6.464,-0.024 9.011,-2.054 2.538,-2.025 3.994,-5.052 3.994,-8.301 V 82.427 C 297,76.568 292.232,71.801 286.373,71.801 Z"
   id="path65" />
			<path
   d="M 18.332,205.042 V 71.801 H 10.626 C 4.768,71.801 0,76.568 0,82.427 v 168.897 c 0,3.25 1.456,6.276 3.994,8.301 2.545,2.029 5.827,2.78 9.011,2.054 25.46,-5.803 70.135,-12.547 112.511,-2.171 -24.502,-23.19 -59.1,-27.292 -80.083,-27.342 C 30.49,232.13 18.332,219.963 18.332,205.042 Z"
   id="path67" />
		</g>
	</g><rect
     style="fill:#f7d400;fill-opacity:1;fill-rule:evenodd;stroke:#f7b700;stroke-width:4.21528;stroke-linejoin:round;stroke-miterlimit:4;stroke-dasharray:none;stroke-opacity:1;paint-order:fill markers stroke"
     id="rect112"
     width="183.33589"
     height="50.740475"
     x="163.79584"
     y="53.219677"
     ry="8.7001286" /><text
     xml:space="preserve"
     style="font-style:italic;font-variant:normal;font-weight:bold;font-stretch:normal;font-size:32.9699px;line-height:0.65;font-family:Arial;-inkscape-font-specification:'Arial, Bold Italic';font-variant-ligatures:normal;font-variant-caps:normal;font-variant-numeric:normal;font-variant-east-asian:normal;stroke-width:0.883121"
     x="196.14856"
     y="90.188942"
     id="text939"><tspan
       sodipodi:role="line"
       id="tspan941"
       x="196.14856"
       y="90.188942"
       style="font-style:italic;font-variant:normal;font-weight:bold;font-stretch:normal;font-size:32.9699px;font-family:Arial;-inkscape-font-specification:'Arial, Bold Italic';font-variant-ligatures:normal;font-variant-caps:normal;font-variant-numeric:normal;font-variant-east-asian:normal;stroke-width:0.883121">Aviaras</tspan></text><path
     style="font-variation-settings:'wdth' 100, 'wght' 600;fill:#f7d400;fill-opacity:1;fill-rule:evenodd;stroke:#f7b700;stroke-width:2.08097;stroke-linejoin:round;stroke-miterlimit:4;stroke-dasharray:none;stroke-opacity:1;paint-order:fill markers stroke"
     d="m 84.180812,84.296058 0.105169,-37.806333 1.037806,-1.594748 c 4.682425,-7.195257 12.539371,-12.90116 21.993033,-15.971868 6.11846,-1.987378 17.92879,-3.447429 20.64228,-2.551899 0.77221,0.254855 1.79616,1.017944 2.2844,1.702432 l 0.88486,1.240543 V 66.20256 c 0,35.31883 -0.031,36.93957 -0.72859,38.09152 -1.18392,1.95506 -1.98479,2.21825 -7.76206,2.5508 -15.16615,0.87301 -26.972038,5.16396 -36.114779,13.12621 l -2.447287,2.1313 z"
     id="path976" /><path
     style="font-variation-settings:'wdth' 100, 'wght' 600;fill:#f7d400;fill-opacity:1;fill-rule:evenodd;stroke:#f7b700;stroke-width:2.08097;stroke-linejoin:round;stroke-miterlimit:4;stroke-dasharray:none;stroke-opacity:1;paint-order:fill markers stroke"
     d="m 136.98366,126.48794 c -8.54232,-1.81146 -14.0831,-2.31392 -25.17778,-2.2832 -8.86125,0.0245 -11.01074,0.15057 -14.992233,0.87908 -2.556331,0.46775 -4.722664,0.77565 -4.814073,0.68425 -0.09141,-0.0914 1.121839,-1.07533 2.696108,-2.18649 7.732638,-5.45787 16.715438,-8.27649 28.599428,-8.97392 3.57597,-0.20986 6.59983,-0.59529 7.71401,-0.98326 2.63015,-0.91583 5.28608,-3.41469 6.61503,-6.22382 l 1.11548,-2.35788 3.1e-4,-31.325841 3.1e-4,-31.325842 1.85418,6.05e-4 c 2.19054,7.18e-4 4.21689,0.937217 5.33961,2.46776 0.80498,1.097407 0.80845,1.269749 0.80845,40.206378 0,38.15557 -0.0185,39.13158 -0.76291,40.23097 -0.78463,1.15881 -2.77592,2.22569 -4.00638,2.14652 -0.38261,-0.0246 -2.6279,-0.45451 -4.98954,-0.95531 z"
     id="path978" /></g></svg>
